<svg xmlns="http://www.w3.org/2000/svg" width="1440" height="691" fill="none" viewBox="0 0 1440 691"><mask id="mask0_19_78" style="mask-type:alpha" width="1463" height="691" x="0" y="0" maskUnits="userSpaceOnUse"><rect width="1463" height="691" fill="#C4C4C4"/></mask><g mask="url(#mask0_19_78)"><rect width="1463" height="691" fill="#F5F5F5"/><rect width="44.074" height="221.57" x="1497.7" y="9" fill="#EEEDED" rx="22.037" transform="rotate(57.2783 1497.7 9)"/><rect width="44.074" height="221.57" x="1440.41" y="-37" fill="#EEEDED" rx="22.037" transform="rotate(57.2783 1440.41 -37)"/><rect width="8.417" height="221.57" x="123.408" y="-54" fill="#EEEDED" transform="rotate(57.2783 123.408 -54)"/><rect width="8.417" height="221.57" x="128.408" y="-37" fill="#EEEDED" transform="rotate(57.2783 128.408 -37)"/><rect width="8.417" height="221.57" x="136.408" y="-22" fill="#EEEDED" transform="rotate(57.2783 136.408 -22)"/><rect width="8.417" height="221.57" x="149.408" y="-10" fill="#EEEDED" transform="rotate(57.2783 149.408 -10)"/><rect width="5.048" height="221.57" x="104.408" y="-60" fill="#EEEDED" transform="rotate(57.2783 104.408 -60)"/><circle cx="1" cy="691" r="119" fill="#EEEDED"/><circle cx="522" cy="610" r="17" fill="#EEEDED"/><circle cx="666.5" cy="663.5" r="53.5" fill="#EEEDED"/><path stroke="#EEEDED" stroke-width="20" d="M616.473 138.934C594.12 119.61 591.665 85.8249 610.989 63.4725C630.313 41.1202 664.098 38.6651 686.45 57.9889"/><path stroke="#EEEDED" stroke-width="20" d="M1345.71 588C1362.26 598.69 1367.01 620.772 1356.32 637.322C1345.63 653.871 1323.55 658.622 1307 647.932"/><rect width="44.074" height="221.57" x="1352.41" y="-53" fill="#EEEDED" rx="22.037" transform="rotate(57.2783 1352.41 -53)"/></g></svg>